<svg width="512" height="512" viewBox="0 0 512 512" fill="none" xmlns="http://www.w3.org/2000/svg">
<path fill-rule="evenodd" clip-rule="evenodd" d="M275.813 29.537L256 0L236.187 29.537L211.546 3.88922L197.163 36.418L168.443 15.4387L159.927 49.9709L128 34.2975L125.61 69.7838L91.4464 59.8926L95.2548 95.2548L59.8926 91.4464L69.7838 125.61L34.2975 128L49.9709 159.927L15.4387 168.443L36.418 197.163L3.88922 211.546L29.537 236.187L0 256L29.537 275.813L3.88922 300.454L36.418 314.837L15.4387 343.557L49.9709 352.073L34.2975 384L69.7838 386.39L59.8926 420.554L95.2548 416.745L91.4464 452.107L125.61 442.216L128 477.703L159.927 462.029L168.443 496.561L197.163 475.582L211.546 508.111L236.187 482.463L256 512L275.813 482.463L300.454 508.111L314.837 475.582L343.557 496.561L352.073 462.029L384 477.703L386.39 442.216L420.554 452.107L416.745 416.745L452.107 420.554L442.216 386.39L477.703 384L462.029 352.073L496.561 343.557L475.582 314.837L508.111 300.454L482.463 275.813L512 256L482.463 236.187L508.111 211.546L475.582 197.163L496.561 168.443L462.029 159.927L477.703 128L442.216 125.61L452.107 91.4464L416.745 95.2548L420.554 59.8926L386.39 69.7838L384 34.2975L352.073 49.9709L343.557 15.4387L314.837 36.418L300.454 3.88922L275.813 29.537ZM104.686 218.477L131.953 344.537C133.148 350.059 138.032 354 143.682 354H365.913C371.52 354 376.379 350.118 377.617 344.65L405.952 219.503C408.18 209.663 398.008 201.633 388.954 206.084L332.161 234.005C326.456 236.809 319.554 234.678 316.423 229.146L265.876 139.834C261.296 131.741 249.648 131.709 245.022 139.777L194.55 227.82C191.422 233.276 184.611 235.391 178.942 232.668L121.612 205.123C112.612 200.799 102.575 208.718 104.686 218.477Z" fill="white"/>
</svg>
