<svg width="39" height="36" viewBox="0 0 39 36" fill="none" xmlns="http://www.w3.org/2000/svg">
<mask id="mask0_22_111" style="mask-type:alpha" maskUnits="userSpaceOnUse" x="0" y="0" width="20" height="36">
<rect y="0.576843" width="19.182" height="34.8463" fill="#D9D9D9"/>
</mask>
<g mask="url(#mask0_22_111)">
<path d="M4.87783 7.45728V29.0783H8.90806C10.4569 29.0783 11.8794 28.857 13.1754 28.4145C14.4714 27.972 15.5777 27.2924 16.4944 26.3757C17.4111 25.459 18.1223 24.3052 18.628 22.9144C19.1654 21.492 19.4341 19.8009 19.4341 17.8411C19.4341 15.818 19.1812 14.1427 18.6755 12.8151C18.1697 11.4559 17.4585 10.3812 16.5418 9.59094C15.6567 8.8007 14.5978 8.24753 13.365 7.93143C12.1639 7.61533 10.8363 7.45728 9.38221 7.45728H4.87783ZM-2.7085 1.2934H8.90806C11.5001 1.2934 13.9024 1.56208 16.1151 2.09944C18.3594 2.63681 20.3034 3.53768 21.9471 4.80207C23.5908 6.06646 24.871 7.74177 25.7876 9.82801C26.7359 11.9142 27.2101 14.4904 27.2101 17.5566C27.2101 20.4647 26.7359 23.0251 25.7876 25.2377C24.871 27.4504 23.575 29.2996 21.8996 30.7852C20.2243 32.2709 18.2329 33.393 15.9254 34.1517C13.6495 34.8787 11.1682 35.2422 8.48133 35.2422H-2.7085V1.2934Z" fill="white"/>
</g>
<mask id="mask1_22_111" style="mask-type:alpha" maskUnits="userSpaceOnUse" x="19" y="0" width="10" height="36">
<rect x="19.182" y="0.576843" width="9.5046" height="34.8463" fill="#D9D9D9"/>
</mask>
<g mask="url(#mask1_22_111)">
<path d="M9.8843 7.45728V29.0783H13.9145C15.4634 29.0783 16.8858 28.857 18.1818 28.4145C19.4778 27.972 20.5842 27.2924 21.5009 26.3757C22.4175 25.459 23.1288 24.3052 23.6345 22.9144C24.1719 21.492 24.4406 19.8009 24.4406 17.8411C24.4406 15.818 24.1877 14.1427 23.6819 12.8151C23.1762 11.4559 22.465 10.3812 21.5483 9.59094C20.6632 8.8007 19.6043 8.24753 18.3715 7.93143C17.1703 7.61533 15.8427 7.45728 14.3887 7.45728H9.8843ZM2.29797 1.2934H13.9145C16.5065 1.2934 18.9089 1.56208 21.1215 2.09944C23.3658 2.63681 25.3098 3.53768 26.9535 4.80207C28.5972 6.06646 29.8774 7.74177 30.7941 9.82801C31.7424 11.9142 32.2165 14.4904 32.2165 17.5566C32.2165 20.4647 31.7424 23.0251 30.7941 25.2377C29.8774 27.4504 28.5814 29.2996 26.9061 30.7852C25.2308 32.2709 23.2394 33.393 20.9319 34.1517C18.656 34.8787 16.1746 35.2422 13.4878 35.2422H2.29797V1.2934Z" fill="white"/>
</g>
<mask id="mask2_22_111" style="mask-type:alpha" maskUnits="userSpaceOnUse" x="28" y="0" width="11" height="36">
<rect x="28.6866" y="0.576843" width="9.5046" height="34.8463" fill="#D9D9D9"/>
</mask>
<g mask="url(#mask2_22_111)">
<path d="M15.4143 7.45728V29.0783H19.4446C20.9934 29.0783 22.4159 28.857 23.7119 28.4145C25.0079 27.972 26.1142 27.2924 27.0309 26.3757C27.9476 25.459 28.6588 24.3052 29.1645 22.9144C29.7019 21.492 29.9706 19.8009 29.9706 17.8411C29.9706 15.818 29.7177 14.1427 29.212 12.8151C28.7062 11.4559 27.995 10.3812 27.0783 9.59094C26.1932 8.8007 25.1343 8.24753 23.9015 7.93143C22.7004 7.61533 21.3728 7.45728 19.9187 7.45728H15.4143ZM7.828 1.2934H19.4446C22.0366 1.2934 24.4389 1.56208 26.6516 2.09944C28.8959 2.63681 30.8399 3.53768 32.4836 4.80207C34.1273 6.06646 35.4075 7.74177 36.3241 9.82801C37.2724 11.9142 37.7466 14.4904 37.7466 17.5566C37.7466 20.4647 37.2724 23.0251 36.3241 25.2377C35.4075 27.4504 34.1115 29.2996 32.4361 30.7852C30.7608 32.2709 28.7694 33.393 26.4619 34.1517C24.186 34.8787 21.7047 35.2422 19.0178 35.2422H7.828V1.2934Z" fill="white"/>
</g>
</svg>
