<svg width="800" height="800" viewBox="0 0 800 800" fill="none" xmlns="http://www.w3.org/2000/svg">
<path d="M413.441 761.014C354.922 761.014 302.905 753.026 257.39 737.049C212.061 721.258 173.791 697.944 142.581 667.105C111.371 636.452 87.6847 599.019 71.5223 554.804C55.3599 510.59 47.1858 460.059 47 403.212C47.1858 347.665 55.4528 297.599 71.801 253.013C88.1491 208.241 112.021 169.971 143.417 138.204C174.813 106.251 213.176 81.7283 258.505 64.637C303.834 47.5457 355.386 39 413.162 39C467.594 39 515.803 47.267 557.788 63.801C599.959 80.3349 635.535 103.371 664.516 132.909C693.683 162.262 715.697 196.63 730.559 236.014C745.607 275.213 753.131 317.755 753.131 363.642C753.131 395.409 750.715 425.505 745.885 453.928C741.055 482.166 732.788 507.246 721.084 529.167C709.566 551.089 693.868 568.551 673.99 581.556C654.113 594.374 629.219 601.341 599.309 602.455C580.546 603.384 564.105 601.619 549.986 597.161C535.867 592.702 524.442 585.736 515.71 576.261C507.165 566.601 501.777 554.804 499.548 540.871H496.204C491.931 552.018 483.85 562.235 471.96 571.524C460.256 580.627 445.766 587.779 428.489 592.981C411.212 597.997 391.984 600.04 370.806 599.111C348.141 597.997 327.149 592.795 307.828 583.506C288.693 574.032 271.973 560.842 257.669 543.936C243.55 526.845 232.589 506.224 224.787 482.073C216.984 457.923 213.083 430.521 213.083 399.868C213.083 369.958 217.356 343.578 225.901 320.728C234.447 297.877 245.872 278.371 260.177 262.209C274.667 246.046 291.015 233.413 309.221 224.311C327.427 215.022 346.191 209.077 365.511 206.476C385.575 203.689 404.431 203.968 422.08 207.312C439.728 210.656 454.404 215.765 466.108 222.639C477.998 229.512 485.429 237.036 488.401 245.21H492.303V214H570.049V479.287C570.235 493.22 573.579 504.459 580.081 513.005C586.769 521.55 596.058 525.823 607.947 525.823C622.809 525.823 634.792 519.971 643.895 508.268C653.184 496.378 659.872 478.172 663.959 453.65C668.231 428.942 670.275 397.36 670.089 358.904C670.275 327.323 666.095 298.713 657.549 273.076C649.189 247.254 637.3 224.589 621.881 205.083C606.461 185.576 587.977 169.321 566.427 156.317C545.063 143.127 521.283 133.188 495.089 126.5C468.895 119.812 440.936 116.468 411.212 116.468C365.697 116.468 325.662 123.435 291.108 137.368C256.554 151.115 227.573 170.714 204.166 196.166C180.944 221.617 163.388 251.805 151.498 286.731C139.795 321.471 133.943 359.926 133.943 402.097C133.943 447.24 140.073 487.275 152.334 522.201C164.781 556.941 182.987 586.2 206.952 609.979C230.917 633.758 260.548 651.779 295.846 664.04C331.329 676.301 372.106 682.432 418.178 682.432C439.357 682.432 460.071 680.76 480.32 677.416C500.57 674.072 518.775 670.17 534.938 665.712C551.1 661.253 563.547 657.352 572.279 654.008L595.965 724.788C584.447 730.733 568.842 736.492 549.15 742.065C529.643 747.639 508.093 752.19 484.5 755.72C461.092 759.249 437.406 761.014 413.441 761.014ZM393.935 519.135C417.528 519.135 436.384 514.584 450.503 505.481C464.622 496.192 474.747 482.445 480.877 464.239C487.008 446.033 489.98 423.368 489.795 396.245C489.795 370.98 486.636 350.266 480.32 334.104C474.004 317.941 463.879 305.959 449.946 298.156C436.013 290.354 417.528 286.452 394.492 286.452C373.685 286.452 355.944 291.189 341.268 300.664C326.777 310.139 315.631 323.236 307.828 339.955C300.211 356.489 296.403 375.346 296.403 396.524C296.403 417.702 299.468 437.673 305.599 456.436C311.915 475.014 322.133 490.154 336.252 501.858C350.556 513.376 369.784 519.135 393.935 519.135Z" fill="#7C7C7C"/>
</svg>
