<svg width="35" height="36" viewBox="0 0 35 36" fill="none" xmlns="http://www.w3.org/2000/svg">
<path fill-rule="evenodd" clip-rule="evenodd" d="M17.3036 6.96285C13.0281 6.96285 9.56216 10.2791 9.56216 14.37C9.56216 18.4608 13.0281 21.7771 17.3036 21.7771C21.5792 21.7771 25.0451 18.4608 25.0451 14.37C25.0451 10.2791 21.5792 6.96285 17.3036 6.96285ZM6.46558 14.37C6.46558 8.64278 11.3179 4 17.3036 4C23.2893 4 28.1417 8.64278 28.1417 14.37C28.1417 20.0972 23.2893 24.7399 17.3036 24.7399C11.3179 24.7399 6.46558 20.0972 6.46558 14.37Z" fill="white"/>
<path d="M11.4051 31.4166L10.4849 31.6004C9.15467 31.8662 7.30884 31.9409 7.30884 30.5844C7.30884 29.2272 9.15664 29.049 10.4927 28.8106L11.4089 28.6471C15.3079 27.9516 19.2992 27.9516 23.1981 28.6471L24.1143 28.8106C25.4504 29.049 27.2982 29.2272 27.2982 30.5844C27.2982 31.9409 25.4524 31.8661 24.1221 31.6004L23.202 31.4166C19.3081 30.6387 15.2989 30.6387 11.4051 31.4166Z" fill="#F5F5F7"/>
</svg>
