<svg width="453" height="150" viewBox="0 0 453 150" fill="none" xmlns="http://www.w3.org/2000/svg">
<path d="M18.2788 90.5853L21 75L23.8009 91.0415C25.4816 100.667 31.971 108.764 41 112.5C32.061 115.582 25.5185 123.3 23.9408 132.623L21 150L18.1383 133.09C16.5145 123.495 9.73196 115.577 0.5 112.5C9.82406 108.77 16.5515 100.478 18.2788 90.5853Z" fill="white" fill-opacity="0.92"/>
<path d="M105.779 15.5853L108.5 0L111.301 16.0415C112.982 25.6674 119.471 33.7639 128.5 37.5C119.561 40.5824 113.018 48.2999 111.441 57.6228L108.5 75L105.638 58.0897C104.015 48.4948 97.232 40.5773 88 37.5C97.3241 33.7704 104.051 25.4779 105.779 15.5853Z" fill="white" fill-opacity="0.92"/>
<path d="M181.779 90.5853L184.5 75L187.301 91.0415C188.982 100.667 195.471 108.764 204.5 112.5C195.561 115.582 189.018 123.3 187.441 132.623L184.5 150L181.638 133.09C180.015 123.495 173.232 115.577 164 112.5C173.324 108.77 180.051 100.478 181.779 90.5853Z" fill="white" fill-opacity="0.92"/>
<path d="M358.779 90.5853L361.5 75L364.301 91.0415C365.982 100.667 372.471 108.764 381.5 112.5C372.561 115.582 366.018 123.3 364.441 132.623L361.5 150L358.638 133.09C357.015 123.495 350.232 115.577 341 112.5C350.324 108.77 357.051 100.478 358.779 90.5853Z" fill="white" fill-opacity="0.92"/>
<path d="M267.779 15.5853L270.5 0L273.301 16.0415C274.982 25.6674 281.471 33.7639 290.5 37.5C281.561 40.5824 275.018 48.2999 273.441 57.6228L270.5 75L267.638 58.0897C266.015 48.4948 259.232 40.5773 250 37.5C259.324 33.7704 266.051 25.4779 267.779 15.5853Z" fill="white" fill-opacity="0.92"/>
<path d="M429.779 15.5853L432.5 0L435.301 16.0415C436.982 25.6674 443.471 33.7639 452.5 37.5C443.561 40.5824 437.018 48.2999 435.441 57.6228L432.5 75L429.638 58.0897C428.015 48.4948 421.232 40.5773 412 37.5C421.324 33.7704 428.051 25.4779 429.779 15.5853Z" fill="white" fill-opacity="0.92"/>
</svg>
