<svg width="800" height="800" viewBox="0 0 800 800" fill="none" xmlns="http://www.w3.org/2000/svg">
<path d="M682.322 151.15C682.322 151.15 747.077 125.9 741.68 187.221C739.882 212.472 723.693 300.847 711.102 396.437L667.932 679.598C667.932 679.598 664.335 721.08 631.957 728.295C599.578 735.508 551.013 703.045 542.018 695.83C534.823 690.42 407.113 609.258 362.143 569.58C349.552 558.758 335.162 537.115 363.942 511.865L552.812 331.508C574.397 309.865 595.982 259.365 506.043 320.687L254.218 492.027C254.218 492.027 225.438 510.062 171.477 493.83L54.557 457.758C54.557 457.758 11.3868 430.705 85.1358 403.65C265.012 318.882 486.258 232.31 682.322 151.15Z" fill="#7C7C7C"/>
</svg>
