<svg width="800" height="800" viewBox="0 0 800 800" fill="none" xmlns="http://www.w3.org/2000/svg">
<path d="M560.727 171.147C536.29 143.131 521.6 106.602 521.6 66.6667H490.977C498.863 110.317 524.847 147.775 560.727 171.147Z" fill="#7C7C7C"/>
<path d="M277.394 396.827C224.346 396.827 181.197 440.013 181.197 493.103C181.197 530.1 202.231 562.293 232.852 578.39C221.408 562.603 214.603 543.257 214.603 522.203C214.603 469.113 257.752 425.927 310.8 425.927C320.698 425.927 330.286 427.627 339.257 430.413V313.397C329.976 312.158 320.543 311.383 310.8 311.383C309.098 311.383 307.552 311.538 305.85 311.538V401.313C296.726 398.527 287.291 396.827 277.394 396.827Z" fill="#7C7C7C"/>
<path d="M647.483 222.536V311.538C588.097 311.538 533.04 292.5 488.187 260.304V493.257C488.187 609.503 393.693 704.233 277.391 704.233C232.54 704.233 190.783 689.993 156.604 666C195.113 707.327 250.016 733.333 310.797 733.333C426.943 733.333 521.593 638.757 521.593 522.357V289.404C566.443 321.6 621.5 340.637 680.89 340.637V226.098C669.29 226.098 658.153 224.858 647.483 222.536Z" fill="#7C7C7C"/>
<path d="M488.187 493.257V260.304C533.04 292.5 588.097 311.538 647.483 311.538V222.536C613.15 215.263 582.997 196.688 560.727 171.147C524.847 147.775 499.013 110.317 490.817 66.6667H406.993L406.837 525.917C404.983 577.307 362.607 618.637 310.798 618.637C278.628 618.637 250.326 602.693 232.695 578.547C202.073 562.293 181.04 530.253 181.04 493.257C181.04 440.167 224.189 396.98 277.236 396.98C287.134 396.98 296.723 398.683 305.693 401.47V311.693C191.866 314.17 100 407.66 100 522.357C100 577.77 121.497 628.233 156.604 666C190.783 689.993 232.54 704.233 277.391 704.233C393.537 704.233 488.187 609.503 488.187 493.257Z" fill="#7C7C7C"/>
</svg>
